<svg id="Layer_1" data-name="Layer 1" xmlns="http://www.w3.org/2000/svg" viewBox="0 0 517.7 336.25"><defs><style>.cls-1{fill:#722282;}.cls-2{fill:#ffb600;}</style></defs><path class="cls-1" d="M274.15,274.13a34.45,34.45,0,0,0-2.83,3.81l23,23a23.28,23.28,0,0,1,9.26,9.25l3,3,3.32-3.33Z" transform="translate(-24.61 -115.34)"/><rect class="cls-1" x="301.26" y="255.08" width="4.7" height="50.48" transform="translate(-133.93 180.94) rotate(-44.93)"/><path class="cls-1" d="M268.92,282.19A40.78,40.78,0,0,0,267,286.9l11.63,11.63a23.61,23.61,0,0,1,4.57-.45c.56,0,1.13,0,1.68.07Z" transform="translate(-24.61 -115.34)"/><path class="cls-1" d="M307.37,240.88,304,244.19l35.7,35.7.45-.46a2,2,0,0,0,.32-.45h0l.33-.63a26,26,0,0,0,1.19-2.8Z" transform="translate(-24.61 -115.34)"/><polygon class="cls-1" points="276.1 132.18 272.78 135.51 308.48 171.21 311.79 167.88 276.1 132.18"/><path class="cls-1" d="M344,257.58a25.66,25.66,0,0,0-7.33-13.92l-16-16.08-3.33,3.32Z" transform="translate(-24.61 -115.34)"/><path class="cls-1" d="M265.61,292.17a37.83,37.83,0,0,0,.05,13.91,23.42,23.42,0,0,1,7.94-5.93Z" transform="translate(-24.61 -115.34)"/><path class="cls-1" d="M314,234.23l-3.31,3.32,32.87,32.88a35.31,35.31,0,0,0,.83-5.81Z" transform="translate(-24.61 -115.34)"/><rect class="cls-1" x="307.91" y="248.44" width="4.7" height="50.48" transform="translate(-127.24 184.53) rotate(-45.05)"/><path class="cls-1" d="M294,126.13a10.79,10.79,0,1,1-10.78-10.79A10.79,10.79,0,0,1,294,126.13" transform="translate(-24.61 -115.34)"/><path class="cls-2" d="M374.05,224.61c.91-22.1-14-37-14.18-37.16l-40.8-40.8c-14.28,14.59-20.33,30-17.52,44.57a38.89,38.89,0,0,0,8.92,18.23L340,239c12.49,12.47,10.17,28.83,7.7,33.12,17.58-15.7,25.65-30.88,26.33-47.51" transform="translate(-24.61 -115.34)"/><path class="cls-1" d="M192.88,222.94c-.91,22.1,14,37,14.19,37.16l40.8,40.8c14.28-14.59,20.33-30,17.51-44.57a38.82,38.82,0,0,0-8.92-18.23l-29.55-29.56c-12.48-12.47-10.16-28.82-7.7-33.11-17.57,15.69-25.64,30.88-26.33,47.51" transform="translate(-24.61 -115.34)"/><path class="cls-2" d="M301.12,141.13a23.19,23.19,0,0,1-39.66-8.23l-34.88,34.88a4.07,4.07,0,0,0-.33.46l-.32.62c-.67,1.31-9.92,20.6,4.18,34.7l16,16.07,46.08-46.09a38.82,38.82,0,0,0,8.92-18.23,37.78,37.78,0,0,0,0-14.18" transform="translate(-24.61 -115.34)"/><path class="cls-2" d="M294,321.24a10.79,10.79,0,1,1-10.79-10.78A10.79,10.79,0,0,1,294,321.24" transform="translate(-24.61 -115.34)"/><rect class="cls-1" x="394.93" y="257.12" width="5.47" height="36.45"/><path class="cls-1" d="M390.18,375.18a2.74,2.74,0,1,1-2.74-2.72,2.74,2.74,0,0,1,2.74,2.72" transform="translate(-24.61 -115.34)"/><path class="cls-1" d="M318.49,417.13a2.74,2.74,0,1,1-2.74-2.75,2.74,2.74,0,0,1,2.74,2.75" transform="translate(-24.61 -115.34)"/><path class="cls-1" d="M310.05,417.13a2.73,2.73,0,1,1-2.72-2.75,2.73,2.73,0,0,1,2.72,2.75" transform="translate(-24.61 -115.34)"/><path class="cls-1" d="M278.43,375.18a2.74,2.74,0,1,1-2.73-2.72,2.74,2.74,0,0,1,2.73,2.72" transform="translate(-24.61 -115.34)"/><path class="cls-1" d="M270,375.18a2.74,2.74,0,1,1-2.73-2.72,2.73,2.73,0,0,1,2.73,2.72" transform="translate(-24.61 -115.34)"/><path class="cls-1" d="M398.59,375.18a2.73,2.73,0,1,1-2.73-2.72,2.72,2.72,0,0,1,2.73,2.72" transform="translate(-24.61 -115.34)"/><path class="cls-1" d="M371.62,372.45a2.74,2.74,0,1,0,2.74,2.73,2.73,2.73,0,0,0-2.74-2.73" transform="translate(-24.61 -115.34)"/><path class="cls-1" d="M408.94,372.45v23.71a7.28,7.28,0,0,1-14.56,0V383.41h-5.47v12.75a7.28,7.28,0,0,1-14.55,0V383.41h-5.47v12.75a7.28,7.28,0,0,1-14.56,0,12.76,12.76,0,0,0-25.51,0h0a7.27,7.27,0,0,1-14.54,0V383.41h-5.47v12.75a7.28,7.28,0,0,1-14.55,0V377.93h-5.5v5.48H261.48a12.75,12.75,0,1,0,0,25.49h20a12.73,12.73,0,0,0,10-4.88,12.72,12.72,0,0,0,20,0,12.71,12.71,0,0,0,20,0,12.71,12.71,0,0,0,20,0,12.72,12.72,0,0,0,20,0,12.72,12.72,0,0,0,20,0,12.73,12.73,0,0,0,22.75-7.86V372.45Zm-67.36,31a7.27,7.27,0,0,1-7.27-7.25h0a7.27,7.27,0,1,1,7.27,7.26m-52.82-7.26a7.26,7.26,0,0,1-7.25,7.26h-20a7.27,7.27,0,1,1,0-14.54h27.28Z" transform="translate(-24.61 -115.34)"/><path class="cls-1" d="M473.16,377.93a6.6,6.6,0,0,0-6.58,6.58,6.18,6.18,0,0,0,.38,2.07H462.8v4.51h15.14v-4.51h-4.78a2.08,2.08,0,1,1,0-4.16h4.78v-4.49Z" transform="translate(-24.61 -115.34)"/><path class="cls-1" d="M532.31,417.13a2.74,2.74,0,1,1-2.75-2.75,2.75,2.75,0,0,1,2.75,2.75" transform="translate(-24.61 -115.34)"/><path class="cls-1" d="M522.29,375.18a2.74,2.74,0,1,1-2.73-2.72,2.74,2.74,0,0,1,2.73,2.72" transform="translate(-24.61 -115.34)"/><path class="cls-1" d="M536.85,383.41v12.75a7.28,7.28,0,0,1-14.56,0V383.41h-5.48v12.75a7.27,7.27,0,0,1-14.54,0V372.45h-5.48v23.71a7.27,7.27,0,0,1-7.27,7.26H449.46a7.28,7.28,0,0,1-7.28-7.26h-5.46a12.75,12.75,0,0,0,12.74,12.74h40.06a12.72,12.72,0,0,0,10-4.87,12.73,12.73,0,0,0,20,0,12.74,12.74,0,0,0,22.76-7.87V383.41Z" transform="translate(-24.61 -115.34)"/><path class="cls-1" d="M94.39,417.13a2.74,2.74,0,1,1-2.74-2.75,2.74,2.74,0,0,1,2.74,2.75" transform="translate(-24.61 -115.34)"/><path class="cls-1" d="M86,417.13a2.74,2.74,0,1,1-2.73-2.75A2.74,2.74,0,0,1,86,417.13" transform="translate(-24.61 -115.34)"/><path class="cls-1" d="M54.33,375.18a2.74,2.74,0,1,1-2.74-2.72,2.74,2.74,0,0,1,2.74,2.72" transform="translate(-24.61 -115.34)"/><path class="cls-1" d="M45.9,375.18a2.74,2.74,0,1,1-2.72-2.72,2.73,2.73,0,0,1,2.72,2.72" transform="translate(-24.61 -115.34)"/><rect class="cls-1" x="206.93" y="257.12" width="5.47" height="36.45"/><path class="cls-1" d="M200.93,396.16a7.28,7.28,0,1,0-7.28,7.26,7.29,7.29,0,0,0,7.28-7.26M64.67,388.88H37.37a7.27,7.27,0,1,0,0,14.54h20a7.27,7.27,0,0,0,7.27-7.26Zm161.75-16.43v23.71A12.74,12.74,0,0,1,203.66,404a12.73,12.73,0,0,1-20,0,12.74,12.74,0,0,1-20,0,12.72,12.72,0,0,1-10,4.87h-36.1a12.67,12.67,0,0,1-10-4.87,12.74,12.74,0,0,1-20,0,12.73,12.73,0,0,1-20,0,12.69,12.69,0,0,1-10,4.87h-20a12.75,12.75,0,1,1,0-25.49h27.3v-5.49h5.48v18.24a7.28,7.28,0,0,0,14.55,0V383.41h5.49v12.75a7.28,7.28,0,0,0,14.55,0V372.45h5.47v23.71a7.28,7.28,0,0,0,7.27,7.26h36.1a7.27,7.27,0,1,0,0-14.54H121.17v-5.47h32.41a12.76,12.76,0,0,1,12.75,12.75h0a7.27,7.27,0,0,0,14.54,0,12.76,12.76,0,0,1,25.51,0,7.28,7.28,0,0,0,14.56,0V372.45Z" transform="translate(-24.61 -115.34)"/><path class="cls-1" d="M29.06,447.22h4c1.39,0,3-.62,3-2.42,0-2-2.14-2.28-3.59-2.28H29.06Zm0-8.54h3.21c1.37,0,2.79-.58,2.79-2.25s-1.59-2.15-3-2.15h-3Zm-4.44-8.25h7.51c3.53,0,7.37.76,7.37,5.25A4.63,4.63,0,0,1,36,440.22v.06a4.91,4.91,0,0,1,4.41,5.05c0,4.3-4,5.73-7.57,5.73H24.62Z" transform="translate(-24.61 -115.34)"/><path class="cls-1" d="M50.68,436.43l-2.45,6.41h4.93Zm-1.71-6h3.68l8.76,20.63h-5l-1.74-4.37H46.84l-1.68,4.37h-4.9Z" transform="translate(-24.61 -115.34)"/><polygon class="cls-1" points="38.1 315.09 44.13 315.09 52.7 329.43 52.76 329.43 52.76 315.09 57.19 315.09 57.19 335.72 51.39 335.72 42.6 321.03 42.54 321.03 42.54 335.72 38.1 335.72 38.1 315.09"/><path class="cls-1" d="M94.87,446.87a6.39,6.39,0,1,0-6.15-6.39,6.26,6.26,0,0,0,6.15,6.39m12.38,4.2H95c-6.29,0-10.93-3.94-10.93-10.59a10.76,10.76,0,0,1,21.51,0c0,2.92-1.25,5.77-4,7v.05h5.64Z" transform="translate(-24.61 -115.34)"/><path class="cls-1" d="M125.71,443.11c0,4.87-2.9,8.48-8.48,8.48s-8.51-3.61-8.51-8.48V430.43h4.44v12.49a4.07,4.07,0,1,0,8.11,0V430.43h4.44Z" transform="translate(-24.61 -115.34)"/><polygon class="cls-1" points="104.65 315.09 118.34 315.09 118.34 319.29 109.09 319.29 109.09 323.13 117.83 323.13 117.83 327.33 109.09 327.33 109.09 331.53 118.85 331.53 118.85 335.72 104.65 335.72 104.65 315.09"/><path class="cls-1" d="M158.46,446.87h2.3c4.12,0,7.23-1.61,7.23-6.3,0-4.05-3.16-5.94-6.91-5.94h-2.62ZM154,430.43h6.66c6.48,0,11.92,2.83,11.92,10.37,0,6.68-5.32,10.26-11.33,10.26H154Z" transform="translate(-24.61 -115.34)"/><polygon class="cls-1" points="150.46 315.09 164.15 315.09 164.15 319.29 154.9 319.29 154.9 323.13 163.63 323.13 163.63 327.33 154.9 327.33 154.9 331.53 164.66 331.53 164.66 335.72 150.46 335.72 150.46 315.09"/><path class="cls-1" d="M204.27,446.87h2.3c4.12,0,7.23-1.61,7.23-6.3,0-4.05-3.16-5.94-6.91-5.94h-2.62Zm-4.44-16.44h6.66c6.48,0,11.92,2.83,11.92,10.37,0,6.68-5.32,10.26-11.33,10.26h-7.25Z" transform="translate(-24.61 -115.34)"/><polygon class="cls-1" points="196.27 315.09 209.95 315.09 209.95 319.29 200.71 319.29 200.71 323.13 209.44 323.13 209.44 327.33 200.71 327.33 200.71 331.53 210.47 331.53 210.47 335.72 196.27 335.72 196.27 315.09"/><polygon class="cls-1" points="211.32 315.09 216.38 315.09 221.36 328.61 221.42 328.61 226.49 315.09 231.24 315.09 222.93 335.72 219.37 335.72 211.32 315.09"/><polygon class="cls-1" points="232.8 315.09 246.49 315.09 246.49 319.29 237.24 319.29 237.24 323.13 245.97 323.13 245.97 327.33 237.24 327.33 237.24 331.53 247 331.53 247 335.72 232.8 335.72 232.8 315.09"/><polygon class="cls-1" points="250.01 315.09 254.45 315.09 254.45 331.53 262.68 331.53 262.68 335.72 250.01 335.72 250.01 315.09"/><path class="cls-1" d="M298.81,447.39c3.79,0,6.26-2.8,6.26-6.64s-2.47-6.65-6.26-6.65-6.26,2.8-6.26,6.65,2.48,6.64,6.26,6.64m0-17.49c6.29,0,10.87,4.23,10.87,10.85s-4.58,10.84-10.87,10.84-10.87-4.23-10.87-10.84,4.59-10.85,10.87-10.85" transform="translate(-24.61 -115.34)"/><path class="cls-1" d="M316.43,439.17h2.95c1.57,0,3.14-.55,3.14-2.48,0-2.12-2.11-2.41-3.82-2.41h-2.27ZM312,430.43h7.48c4.18,0,7.65,1.37,7.65,6.26s-3.21,6.33-7.46,6.33h-3.23v8H312Z" transform="translate(-24.61 -115.34)"/><path class="cls-1" d="M333.64,439.17h2.95c1.57,0,3.14-.55,3.14-2.48,0-2.12-2.1-2.41-3.81-2.41h-2.28Zm-4.44-8.74h7.48c4.19,0,7.66,1.37,7.66,6.26s-3.22,6.33-7.46,6.33h-3.24v8H329.2Z" transform="translate(-24.61 -115.34)"/><polygon class="cls-1" points="321.97 315.09 335.66 315.09 335.66 319.29 326.41 319.29 326.41 323.13 335.15 323.13 335.15 327.33 326.41 327.33 326.41 331.53 336.17 331.53 336.17 335.72 321.97 335.72 321.97 315.09"/><polygon class="cls-1" points="339.01 315.09 345.73 315.09 350.36 328.55 350.42 328.55 355.09 315.09 361.78 315.09 361.78 335.72 357.33 335.72 357.33 319.89 357.29 319.89 351.99 335.72 348.6 335.72 343.51 319.89 343.45 319.89 343.45 335.72 339.01 335.72 339.01 315.09"/><polygon class="cls-1" points="365.33 315.09 379.02 315.09 379.02 319.29 369.77 319.29 369.77 323.13 378.51 323.13 378.51 327.33 369.77 327.33 369.77 331.53 379.53 331.53 379.53 335.72 365.33 335.72 365.33 315.09"/><polygon class="cls-1" points="382.37 315.09 388.4 315.09 396.97 329.43 397.03 329.43 397.03 315.09 401.47 315.09 401.47 335.72 395.66 335.72 386.87 321.03 386.81 321.03 386.81 335.72 382.37 335.72 382.37 315.09"/><polygon class="cls-1" points="408.75 319.12 403 319.12 403 315.09 418.94 315.09 418.94 319.12 413.19 319.12 413.19 335.73 408.75 335.73 408.75 319.12"/><polygon class="cls-1" points="428.35 315.09 432.79 315.09 432.79 331.53 441.02 331.53 441.02 335.72 428.35 335.72 428.35 315.09"/><path class="cls-1" d="M477.15,447.39c3.78,0,6.26-2.8,6.26-6.64s-2.48-6.65-6.26-6.65-6.26,2.8-6.26,6.65,2.47,6.64,6.26,6.64m0-17.49c6.29,0,10.87,4.23,10.87,10.85s-4.58,10.84-10.87,10.84-10.87-4.23-10.87-10.84,4.58-10.85,10.87-10.85" transform="translate(-24.61 -115.34)"/><path class="cls-1" d="M503.5,435.79a4.7,4.7,0,0,0-3.81-1.69c-3.37,0-5.84,2.8-5.84,6.65s2.47,6.64,5.69,6.64a4.82,4.82,0,0,0,4.16-2.21l3.69,2.82a8.69,8.69,0,0,1-7.28,3.59c-6.29,0-10.87-4.23-10.87-10.84s4.58-10.85,10.87-10.85a8.56,8.56,0,0,1,6.8,3Z" transform="translate(-24.61 -115.34)"/><path class="cls-1" d="M517.44,436.43,515,442.84h4.93Zm-1.71-6h3.67l8.77,20.63h-5l-1.73-4.37H513.6l-1.68,4.37H507Z" transform="translate(-24.61 -115.34)"/><polygon class="cls-1" points="505.03 315.09 509.47 315.09 509.47 331.53 517.69 331.53 517.69 335.72 505.03 335.72 505.03 315.09"/></svg>