<svg xmlns="http://www.w3.org/2000/svg" viewBox="0 0 2200 2200"><defs><style>.cls-1{fill:#fff;}.cls-2{fill:#ddd;}.cls-3{fill:#211e1e;}</style></defs><g id="background"><rect class="cls-1" width="2200" height="2200"/></g><g id="objects"><ellipse class="cls-2" cx="1077.62" cy="2091.67" rx="954.65" ry="43.33"/><path class="cls-3" d="M280.91,1974.17a70.34,70.34,0,1,0,109,88.9l77.42-95a1061.51,1061.51,0,0,1-109.32-88.43Z" transform="translate(0)"/><path class="cls-3" d="M1797.18,1879.63q-15.35,14.14-31.27,27.75-37.77,32.23-78.09,60.62l77.46,95.08a70.34,70.34,0,1,0,109-88.93Z" transform="translate(0)"/><path class="cls-3" d="M2051.66,926.41a979.83,979.83,0,0,0-103.43-296.52l-23.64,23.65a102.59,102.59,0,0,1-106.73,24.21l-114.8-40.47a773.42,773.42,0,0,1,150.9,414.3c1,16,1.48,32.24,1.48,48.32s-.5,32.35-1.48,48.32c-12.12,197.47-98.24,381.22-242.53,517.42-144.89,136.76-334.47,212.09-533.81,212.09a777.82,777.82,0,1,1,0-1555.64c167.8,0,328.67,53.37,461.81,151.84l-40.64-115.24A103.2,103.2,0,0,1,1523,252l23.38-23.37a984.94,984.94,0,0,0-468.8-117.87c-133.55,0-263.09,26.15-385,77.72A992.71,992.71,0,0,0,166.16,714.88c-51.57,121.93-77.72,251.47-77.72,385s26.15,263.1,77.72,385A992.71,992.71,0,0,0,692.6,2011.37c121.92,51.57,251.47,77.72,385,77.72A989.06,989.06,0,0,0,2052.94,1266a997.31,997.31,0,0,0,12.89-121.53c.65-14.5,1-29.48,1-44.55s-.33-30.05-1-44.51A994.49,994.49,0,0,0,2051.66,926.41Z" transform="translate(0)"/><path class="cls-3" d="M1500,534.13C1378.57,443.22,1231.3,393.9,1077.62,393.9a706,706,0,1,0,0,1412c180.94,0,353-68.37,484.51-192.51,131-123.61,209.15-290.39,220.15-469.58.89-14.51,1.34-29.29,1.34-43.92s-.45-29.4-1.34-43.92A701.88,701.88,0,0,0,1642.6,676.37L1491.46,827.51a493.07,493.07,0,0,1,79.07,222.71c1.64,16.29,2.47,33,2.47,49.68s-.83,33.39-2.47,49.72a495.32,495.32,0,1,1-221.69-464.3Z" transform="translate(0)"/><path class="cls-3" d="M1077.62,887.31a212.28,212.28,0,0,1,60.45,8.78l158.7-158.7a423.55,423.55,0,1,0,202.3,405.08c1.4-14,2.11-28.3,2.11-42.57s-.71-28.59-2.11-42.53a421.31,421.31,0,0,0-59.64-177.84l-158.38,158.39c.64,2.15,1.27,4.33,1.85,6.51a213.77,213.77,0,0,1,0,111c-24.93,92.49-109.34,157.11-205.27,157.11A212.59,212.59,0,0,1,865,1099.9C865,982.68,960.4,887.31,1077.62,887.31Z" transform="translate(0)"/><path class="cls-3" d="M2099.53,333.43,1999,232.9,2023.93,208a39.13,39.13,0,1,0-55.35-55.34l-24.92,24.92L1843.14,77A41.11,41.11,0,0,0,1785,77L1566.55,295.51a41.1,41.1,0,0,0-9.7,42.72l59,167.18-567.37,567.38a39.13,39.13,0,0,0,55.35,55.34l567.37-567.37,167.19,58.94a41.07,41.07,0,0,0,42.72-9.69l218.47-218.46A41.11,41.11,0,0,0,2099.53,333.43Z" transform="translate(0)"/></g></svg>