<svg width="94" height="56" viewBox="0 0 94 56" fill="none" xmlns="http://www.w3.org/2000/svg">
<rect width="93.5629" height="56" rx="12" fill="#2C14DD"/>
<path d="M44.1348 36.7733V33.7156C44.1348 32.9351 44.7722 32.3023 45.5584 32.3023H48.4326C48.8102 32.3023 49.1723 32.4512 49.4393 32.7163C49.7063 32.9813 49.8563 33.3408 49.8563 33.7156V36.7733C49.8539 37.0978 49.9821 37.4099 50.2124 37.6402C50.4427 37.8705 50.7561 38 51.0829 38H53.0438C53.9596 38.0023 54.8388 37.6428 55.4872 37.0008C56.1356 36.3588 56.5 35.487 56.5 34.5778V25.8669C56.5 25.1325 56.1721 24.4358 55.6046 23.9647L48.934 18.6759C47.7737 17.7486 46.1111 17.7785 44.9854 18.747L38.467 23.9647C37.8727 24.422 37.5176 25.1206 37.5 25.8669V34.5689C37.5 36.4639 39.0474 38 40.9562 38H42.8723C43.5512 38 44.103 37.4562 44.1079 36.7822L44.1348 36.7733Z" fill="white"/>
</svg>
