<svg width="94" height="56" viewBox="0 0 94 56" fill="none" xmlns="http://www.w3.org/2000/svg">
<rect width="93.5629" height="56" fill="white"/>
<path fill-rule="evenodd" clip-rule="evenodd" d="M41.3305 18.0005H50.6695C54.0705 18.0005 55.9905 19.9295 56.0005 23.3305V32.6705C56.0005 36.0705 54.0705 38.0005 50.6695 38.0005H41.3305C37.9295 38.0005 36.0005 36.0705 36.0005 32.6705V23.3305C36.0005 19.9295 37.9295 18.0005 41.3305 18.0005ZM46.0495 33.8605C46.4805 33.8605 46.8395 33.5405 46.8795 33.1105V22.9205C46.9195 22.6105 46.7705 22.2995 46.5005 22.1305C46.2195 21.9605 45.8795 21.9605 45.6105 22.1305C45.3395 22.2995 45.1905 22.6105 45.2195 22.9205V33.1105C45.2705 33.5405 45.6295 33.8605 46.0495 33.8605ZM50.6505 33.8605C51.0705 33.8605 51.4295 33.5405 51.4805 33.1105V29.8305C51.5095 29.5095 51.3605 29.2105 51.0895 29.0405C50.8205 28.8705 50.4805 28.8705 50.2005 29.0405C49.9295 29.2105 49.7805 29.5095 49.8205 29.8305V33.1105C49.8605 33.5405 50.2195 33.8605 50.6505 33.8605ZM42.2195 33.1105C42.1795 33.5405 41.8205 33.8605 41.3895 33.8605C40.9595 33.8605 40.5995 33.5405 40.5605 33.1105V26.2005C40.5305 25.8895 40.6795 25.5805 40.9505 25.4105C41.2195 25.2405 41.5605 25.2405 41.8305 25.4105C42.0995 25.5805 42.2505 25.8895 42.2195 26.2005V33.1105Z" fill="#2C14DD"/>
</svg>
